<svg width="136" height="136" viewBox="0 0 136 136" fill="none" xmlns="http://www.w3.org/2000/svg">
<path opacity="0.15" d="M68.0002 130L118.16 43.5501C126.769 28.7122 116.226 10 99.2557 10H36.7448C19.7749 10 9.23117 28.7122 17.8404 43.5501L68.0002 130Z" fill="#A78260"/>
<path d="M67.9999 99.0322L98.9683 46.2764C104.34 37.1256 97.891 25.4838 87.4505 25.4838H48.5493C38.1088 25.4838 31.66 37.1257 37.0316 46.2764L67.9999 99.0322Z" fill="#A78260"/>
<g style="mix-blend-mode:multiply" opacity="0.2">
<path d="M37.0317 46.2764L68 99.0322L68 25.4838H48.5494C38.1089 25.4838 31.6601 37.1256 37.0317 46.2764Z" fill="#A78260"/>
</g>
<g style="mix-blend-mode:multiply" opacity="0.4">
<path d="M67.9999 79.6774L85.2312 48.5186C88.5136 42.5831 84.4138 35.1613 77.8526 35.1613H58.1472C51.586 35.1613 47.4862 42.5831 50.7686 48.5186L67.9999 79.6774Z" fill="#A78260"/>
</g>
<path opacity="0.15" d="M118.16 43.5501L68 130V10H99.2555C116.225 10 126.769 28.7122 118.16 43.5501Z" fill="#A78260"/>
<g style="mix-blend-mode:overlay" opacity="0.35">
<path d="M67.9999 99.0322L98.9683 46.2764C104.34 37.1256 97.891 25.4838 87.4505 25.4838H48.5493C38.1088 25.4838 31.66 37.1257 37.0316 46.2764L67.9999 99.0322Z" fill="url(#paint0_linear)"/>
</g>
<defs>
<linearGradient id="paint0_linear" x1="100.903" y1="25.4838" x2="41.2686" y2="103.736" gradientUnits="userSpaceOnUse">
<stop stop-color="white"/>
<stop offset="1"/>
</linearGradient>
</defs>
</svg>
