<svg width="136" height="136" viewBox="0 0 136 136" fill="none" xmlns="http://www.w3.org/2000/svg">
<path opacity="0.15" d="M68 132L120.682 88.2597C125.099 84.5924 126.83 78.6001 125.048 73.1426L108.235 21.6543C106.354 15.8959 100.984 12 94.9261 12H41.0739C35.0163 12 29.6458 15.8959 27.7654 21.6543L10.9524 73.1426C9.17031 78.6001 10.9007 84.5924 15.3177 88.2597L68 132Z" fill="#CDA353"/>
<path d="M68 105L100.487 78.0268C103.211 75.7653 104.278 72.07 103.179 68.7046L92.8113 36.9535C91.6518 33.4025 88.34 31 84.6045 31H51.3956C47.6601 31 44.3483 33.4025 43.1887 36.9535L32.8207 68.7046C31.7217 72.07 32.7888 75.7653 35.5127 78.0268L68 105Z" fill="#CDA353"/>
<g style="mix-blend-mode:multiply" opacity="0.25">
<path d="M32.8207 68.7046L43.1887 36.9535C44.3483 33.4025 47.6601 31 51.3956 31H68L68 105L35.5127 78.0268C32.7888 75.7653 31.7217 72.07 32.8207 68.7046Z" fill="#CDA353"/>
</g>
<g style="mix-blend-mode:multiply" opacity="0.5">
<path d="M67.9999 87L86.8777 71.3264C88.4605 70.0123 89.0806 67.865 88.442 65.9094L82.4173 47.4594C81.7435 45.396 79.8191 44 77.6484 44H58.3514C56.1808 44 54.2563 45.396 53.5825 47.4594L47.5579 65.9094C46.9193 67.865 47.5393 70.0123 49.1221 71.3264L67.9999 87Z" fill="#CDA353"/>
</g>
<path opacity="0.15" d="M68 132L120.682 88.2597C125.099 84.5924 126.83 78.6001 125.048 73.1426L108.235 21.6543C106.354 15.8959 100.984 12 94.9261 12H68V132Z" fill="#CDA353"/>
<g style="mix-blend-mode:overlay" opacity="0.6">
<path d="M68 105L100.487 78.0268C103.211 75.7653 104.278 72.07 103.179 68.7046L92.8113 36.9535C91.6518 33.4025 88.34 31 84.6045 31H51.3956C47.6601 31 44.3483 33.4025 43.1887 36.9535L32.8207 68.7046C31.7217 72.07 32.7888 75.7653 35.5127 78.0268L68 105Z" fill="url(#paint0_linear)"/>
</g>
<defs>
<linearGradient id="paint0_linear" x1="104" y1="31" x2="44.5049" y2="113.967" gradientUnits="userSpaceOnUse">
<stop stop-color="white"/>
<stop offset="1"/>
</linearGradient>
</defs>
</svg>
