<svg width="156" height="136" viewBox="0 0 156 136" fill="none" xmlns="http://www.w3.org/2000/svg">
<circle opacity="0.15" r="54" transform="matrix(-1 0 0 1 78 68)" fill="#C2264C"/>
<path d="M111.771 33.1399C111.771 33.7416 112.259 34.2293 112.86 34.2293C113.462 34.2293 113.95 33.7416 113.95 33.1399C113.95 32.5383 113.462 32.0506 112.86 32.0506C112.259 32.0506 111.771 32.5383 111.771 33.1399Z" fill="white"/>
<path d="M42.0508 102.86C42.0508 103.462 42.5385 103.949 43.1402 103.949C43.7418 103.949 44.2295 103.462 44.2295 102.86C44.2295 102.258 43.7418 101.771 43.1402 101.771C42.5385 101.771 42.0508 102.258 42.0508 102.86Z" fill="white"/>
<path d="M44.2295 33.1399C44.2295 33.7416 43.7418 34.2293 43.1402 34.2293C42.5385 34.2293 42.0508 33.7416 42.0508 33.1399C42.0508 32.5383 42.5385 32.0506 43.1402 32.0506C43.7418 32.0506 44.2295 32.5383 44.2295 33.1399Z" fill="white"/>
<path d="M113.95 102.86C113.95 103.462 113.462 103.949 112.86 103.949C112.259 103.949 111.771 103.462 111.771 102.86C111.771 102.258 112.259 101.771 112.86 101.771C113.462 101.771 113.95 102.258 113.95 102.86Z" fill="white"/>
<path fill-rule="evenodd" clip-rule="evenodd" d="M76.8443 68L46.9194 38.0752L48.0749 36.9197L77.9997 66.8446L107.925 36.9197L109.08 38.0752L79.1552 68L109.08 97.9248L107.924 99.0803L77.9997 69.1555L48.075 99.0803L46.9195 97.9248L76.8443 68Z" fill="white"/>
<path d="M62.1803 49.3873C70.5764 39.9682 77.9998 21.1568 77.9998 21.1568C77.9998 21.1568 85.4233 39.9682 93.8194 49.3873C102.052 58.6235 119.396 68 119.396 68C119.396 68 102.052 77.3765 93.8194 86.6127C85.4233 96.0318 77.9998 114.843 77.9998 114.843C77.9998 114.843 70.5764 96.0318 62.1803 86.6127C53.9472 77.3765 36.6035 68 36.6035 68C36.6035 68 53.9472 58.6235 62.1803 49.3873Z" fill="#C2264C"/>
<g style="mix-blend-mode:multiply" opacity="0.25">
<path d="M62.1803 49.3873C70.5764 39.9682 77.9998 21.1568 77.9998 21.1568V114.843C77.9998 114.843 70.5764 96.0318 62.1803 86.6127C53.9472 77.3765 36.6035 68 36.6035 68C36.6035 68 53.9472 58.6235 62.1803 49.3873Z" fill="#C2264C"/>
</g>
<path d="M67.2679 55.4472C72.9635 49.0948 77.9993 36.4081 77.9993 36.4081C77.9993 36.4081 83.0352 49.0948 88.7308 55.4472C94.3159 61.6763 106.081 68 106.081 68C106.081 68 94.3159 74.3237 88.7308 80.5528C83.0352 86.9052 77.9993 99.5919 77.9993 99.5919C77.9993 99.5919 72.9635 86.9052 67.2679 80.5528C61.6828 74.3237 49.9175 68 49.9175 68C49.9175 68 61.6828 61.6763 67.2679 55.4472Z" fill="#68277E"/>
<path opacity="0.15" d="M132 68C132 97.8234 107.823 122 78 122V14C107.823 14 132 38.1766 132 68Z" fill="#C2264C"/>
<path fill-rule="evenodd" clip-rule="evenodd" d="M80.0248 5.10155L77.9998 0L75.9748 5.10155L75.9703 5.11286L75.9547 5.15198L75.8904 5.31172C75.833 5.45365 75.7469 5.66537 75.6335 5.94057C75.4068 6.49101 75.0709 7.2951 74.6377 8.30236C73.7709 10.3175 72.5158 13.1423 70.9654 16.3737C67.854 22.8587 63.596 30.8914 58.9385 37.3068L62.4647 39.8668C67.3514 33.1356 71.7425 24.8276 74.8942 18.2587C76.1274 15.6882 77.1774 13.3703 77.9998 11.498C78.8223 13.3703 79.8723 15.6882 81.1055 18.2587C84.2572 24.8276 88.6482 33.1356 93.5349 39.8668L97.0612 37.3068C92.4037 30.8914 88.1456 22.8587 85.0342 16.3737C83.4839 13.1423 82.2288 10.3175 81.362 8.30236C80.9287 7.2951 80.5929 6.49101 80.3661 5.94057C80.2527 5.66537 80.1666 5.45365 80.1093 5.31172L80.045 5.15198L80.0293 5.11286L80.0248 5.10155ZM80.0249 130.898L80.0293 130.887L80.045 130.848L80.1093 130.688C80.1666 130.546 80.2527 130.335 80.3661 130.059C80.5929 129.509 80.9287 128.705 81.362 127.698C82.2288 125.682 83.4839 122.858 85.0342 119.626C88.1456 113.141 92.4037 105.109 97.0612 98.6932L93.5349 96.1332C88.6482 102.864 84.2572 111.172 81.1055 117.741C79.8723 120.312 78.8223 122.63 77.9998 124.502C77.1774 122.63 76.1274 120.312 74.8942 117.741C71.7425 111.172 67.3514 102.864 62.4647 96.1332L58.9385 98.6931C63.596 105.109 67.854 113.141 70.9654 119.626C72.5158 122.858 73.7709 125.682 74.6377 127.698C75.0709 128.705 75.4068 129.509 75.6335 130.059C75.7469 130.335 75.833 130.546 75.8904 130.688L75.9547 130.848L75.9703 130.887L75.9747 130.898L77.9998 136L80.0249 130.898Z" fill="#F0F0F0"/>
<g opacity="0.05">
<path d="M78 0L80.025 5.10155L80.0295 5.11286L80.0451 5.15198L80.1094 5.31172C80.1668 5.45365 80.2529 5.66537 80.3663 5.94057C80.5931 6.49101 80.9289 7.2951 81.3622 8.30236C82.2289 10.3175 83.484 13.1423 85.0344 16.3737C88.1458 22.8587 92.4038 30.8914 97.0613 37.3068L93.5351 39.8668C88.6484 33.1356 84.2573 24.8276 81.1057 18.2587C79.8724 15.6882 78.8224 13.3703 78 11.498L78 0Z" fill="#C2264C"/>
<path d="M80.0451 130.848L80.0295 130.887L80.0251 130.898L78 136V124.502C78.8224 122.63 79.8724 120.312 81.1057 117.741C84.2573 111.172 88.6484 102.864 93.5351 96.1332L97.0614 98.6932C92.4038 105.109 88.1458 113.141 85.0344 119.626C83.484 122.858 82.2289 125.682 81.3622 127.698C80.9289 128.705 80.5931 129.509 80.3663 130.059C80.2529 130.335 80.1668 130.546 80.1094 130.688L80.0451 130.848Z" fill="#C2264C"/>
</g>
<g filter="url(#filter0_dd)">
<path d="M122.665 68L130.291 68V75.6257C130.291 75.6257 128.923 72.5633 127.376 71.03C125.86 69.5264 122.665 68 122.665 68Z" fill="#9DA5AA"/>
<path d="M122.665 68L130.291 68V60.3743C130.291 60.3743 128.923 63.4367 127.376 64.97C125.86 66.4736 122.665 68 122.665 68Z" fill="#C0C5C9"/>
<path d="M137.916 68L130.291 68V75.6257C130.291 75.6257 131.658 72.5633 133.205 71.03C134.721 69.5264 137.916 68 137.916 68Z" fill="#C0C5C9"/>
<path d="M137.916 68L130.291 68V60.3743C130.291 60.3743 131.658 63.4367 133.205 64.97C134.721 66.4736 137.916 68 137.916 68Z" fill="#F0F0F0"/>
</g>
<g filter="url(#filter1_dd)">
<path d="M18.0838 68L25.7095 68V75.6256C25.7095 75.6256 24.342 72.5633 22.7953 71.03C21.2787 69.5264 18.0838 68 18.0838 68Z" fill="#9DA5AA"/>
<path d="M18.0838 68L25.7095 68V60.3743C25.7095 60.3743 24.342 63.4366 22.7953 64.97C21.2787 66.4736 18.0838 68 18.0838 68Z" fill="#C0C5C9"/>
<path d="M33.3351 68L25.7095 68V75.6256C25.7095 75.6256 27.077 72.5633 28.6236 71.03C30.1402 69.5264 33.3351 68 33.3351 68Z" fill="#C0C5C9"/>
<path d="M33.3351 68L25.7095 68V60.3743C25.7095 60.3743 27.077 63.4366 28.6236 64.97C30.1402 66.4736 33.3351 68 33.3351 68Z" fill="#F0F0F0"/>
</g>
<g style="mix-blend-mode:overlay">
<path d="M62.1803 49.3873C70.5764 39.9682 77.9998 21.1568 77.9998 21.1568C77.9998 21.1568 85.4233 39.9682 93.8194 49.3873C102.052 58.6235 119.396 68 119.396 68C119.396 68 102.052 77.3765 93.8194 86.6127C85.4233 96.0318 77.9998 114.843 77.9998 114.843C77.9998 114.843 70.5764 96.0318 62.1803 86.6127C53.9472 77.3765 36.6035 68 36.6035 68C36.6035 68 53.9472 58.6235 62.1803 49.3873Z" fill="url(#paint0_linear)"/>
</g>
<defs>
<filter id="filter0_dd" x="105.235" y="42.9443" width="50.1112" height="50.1113" filterUnits="userSpaceOnUse" color-interpolation-filters="sRGB">
<feFlood flood-opacity="0" result="BackgroundImageFix"/>
<feColorMatrix in="SourceAlpha" type="matrix" values="0 0 0 0 0 0 0 0 0 0 0 0 0 0 0 0 0 0 127 0"/>
<feOffset/>
<feGaussianBlur stdDeviation="4.35751"/>
<feColorMatrix type="matrix" values="0 0 0 0 0.027451 0 0 0 0 0.054902 0 0 0 0 0.113725 0 0 0 0.2 0"/>
<feBlend mode="soft-light" in2="BackgroundImageFix" result="effect1_dropShadow"/>
<feColorMatrix in="SourceAlpha" type="matrix" values="0 0 0 0 0 0 0 0 0 0 0 0 0 0 0 0 0 0 127 0"/>
<feOffset/>
<feGaussianBlur stdDeviation="8.71501"/>
<feColorMatrix type="matrix" values="0 0 0 0 0.027451 0 0 0 0 0.054902 0 0 0 0 0.113725 0 0 0 0.2 0"/>
<feBlend mode="soft-light" in2="effect1_dropShadow" result="effect2_dropShadow"/>
<feBlend mode="normal" in="SourceGraphic" in2="effect2_dropShadow" result="shape"/>
</filter>
<filter id="filter1_dd" x="0.653957" y="42.9443" width="50.1112" height="50.1114" filterUnits="userSpaceOnUse" color-interpolation-filters="sRGB">
<feFlood flood-opacity="0" result="BackgroundImageFix"/>
<feColorMatrix in="SourceAlpha" type="matrix" values="0 0 0 0 0 0 0 0 0 0 0 0 0 0 0 0 0 0 127 0"/>
<feOffset/>
<feGaussianBlur stdDeviation="4.35751"/>
<feColorMatrix type="matrix" values="0 0 0 0 0.027451 0 0 0 0 0.054902 0 0 0 0 0.113725 0 0 0 0.2 0"/>
<feBlend mode="soft-light" in2="BackgroundImageFix" result="effect1_dropShadow"/>
<feColorMatrix in="SourceAlpha" type="matrix" values="0 0 0 0 0 0 0 0 0 0 0 0 0 0 0 0 0 0 127 0"/>
<feOffset/>
<feGaussianBlur stdDeviation="8.71501"/>
<feColorMatrix type="matrix" values="0 0 0 0 0.027451 0 0 0 0 0.054902 0 0 0 0 0.113725 0 0 0 0.2 0"/>
<feBlend mode="soft-light" in2="effect1_dropShadow" result="effect2_dropShadow"/>
<feBlend mode="normal" in="SourceGraphic" in2="effect2_dropShadow" result="shape"/>
</filter>
<linearGradient id="paint0_linear" x1="119.058" y1="21.1568" x2="21.4454" y2="94.1086" gradientUnits="userSpaceOnUse">
<stop stop-color="white"/>
<stop offset="1" stop-opacity="0.75"/>
</linearGradient>
</defs>
</svg>
