<svg width="136" height="136" viewBox="0 0 136 136" fill="none" xmlns="http://www.w3.org/2000/svg">
<circle opacity="0.15" r="54" transform="matrix(-1 0 0 1 68 68)" fill="#C2264C"/>
<path d="M101.771 33.14C101.771 33.7416 102.259 34.2294 102.86 34.2294C103.462 34.2294 103.95 33.7416 103.95 33.14C103.95 32.5383 103.462 32.0506 102.86 32.0506C102.259 32.0506 101.771 32.5383 101.771 33.14Z" fill="white"/>
<path d="M32.0508 102.86C32.0508 103.462 32.5385 103.949 33.1402 103.949C33.7418 103.949 34.2295 103.462 34.2295 102.86C34.2295 102.258 33.7418 101.771 33.1402 101.771C32.5385 101.771 32.0508 102.258 32.0508 102.86Z" fill="white"/>
<path d="M34.2295 33.14C34.2295 33.7416 33.7418 34.2294 33.1402 34.2294C32.5385 34.2294 32.0508 33.7416 32.0508 33.14C32.0508 32.5383 32.5385 32.0506 33.1402 32.0506C33.7418 32.0506 34.2295 32.5383 34.2295 33.14Z" fill="white"/>
<path d="M103.95 102.86C103.95 103.462 103.462 103.949 102.86 103.949C102.259 103.949 101.771 103.462 101.771 102.86C101.771 102.258 102.259 101.771 102.86 101.771C103.462 101.771 103.95 102.258 103.95 102.86Z" fill="white"/>
<path fill-rule="evenodd" clip-rule="evenodd" d="M66.8443 68L36.9194 38.0752L38.0749 36.9197L67.9997 66.8446L97.9245 36.9197L99.08 38.0752L69.1552 68L99.0799 97.9248L97.9244 99.0803L67.9997 69.1555L38.075 99.0803L36.9195 97.9248L66.8443 68Z" fill="white"/>
<path d="M52.1803 49.3873C60.5764 39.9682 67.9998 21.1568 67.9998 21.1568C67.9998 21.1568 75.4233 39.9682 83.8194 49.3873C92.0525 58.6235 109.396 68 109.396 68C109.396 68 92.0525 77.3765 83.8194 86.6127C75.4233 96.0318 67.9998 114.843 67.9998 114.843C67.9998 114.843 60.5764 96.0318 52.1803 86.6127C43.9472 77.3765 26.6035 68 26.6035 68C26.6035 68 43.9472 58.6235 52.1803 49.3873Z" fill="#C2264C"/>
<g style="mix-blend-mode:multiply" opacity="0.25">
<path d="M52.1803 49.3873C60.5764 39.9682 67.9998 21.1568 67.9998 21.1568V114.843C67.9998 114.843 60.5764 96.0318 52.1803 86.6127C43.9472 77.3765 26.6035 68 26.6035 68C26.6035 68 43.9472 58.6235 52.1803 49.3873Z" fill="#C2264C"/>
</g>
<path d="M57.2679 55.4472C62.9635 49.0948 67.9993 36.4081 67.9993 36.4081C67.9993 36.4081 73.0352 49.0948 78.7308 55.4472C84.3159 61.6763 96.0812 68 96.0812 68C96.0812 68 84.3159 74.3237 78.7308 80.5528C73.0352 86.9052 67.9993 99.5919 67.9993 99.5919C67.9993 99.5919 62.9635 86.9052 57.2679 80.5528C51.6828 74.3237 39.9175 68 39.9175 68C39.9175 68 51.6828 61.6763 57.2679 55.4472Z" fill="#68277E"/>
<path opacity="0.15" d="M122 68C122 97.8234 97.8234 122 68 122V14C97.8234 14 122 38.1766 122 68Z" fill="#C2264C"/>
<g style="mix-blend-mode:overlay">
<path d="M52.1803 49.3873C60.5764 39.9682 67.9998 21.1568 67.9998 21.1568C67.9998 21.1568 75.4233 39.9682 83.8194 49.3873C92.0525 58.6235 109.396 68 109.396 68C109.396 68 92.0525 77.3765 83.8194 86.6127C75.4233 96.0318 67.9998 114.843 67.9998 114.843C67.9998 114.843 60.5764 96.0318 52.1803 86.6127C43.9472 77.3765 26.6035 68 26.6035 68C26.6035 68 43.9472 58.6235 52.1803 49.3873Z" fill="url(#paint0_linear)"/>
</g>
<defs>
<linearGradient id="paint0_linear" x1="109.058" y1="21.1568" x2="11.4454" y2="94.1086" gradientUnits="userSpaceOnUse">
<stop stop-color="white"/>
<stop offset="1" stop-opacity="0.75"/>
</linearGradient>
</defs>
</svg>
