<svg width="146" height="136" viewBox="0 0 146 136" fill="none" xmlns="http://www.w3.org/2000/svg">
<path opacity="0.15" d="M66.7654 8H79.2346C85.3538 8 98.9527 8.06711 112.486 30.5843C117.34 38.6605 135 68 135 68C135 68 117.34 97.3395 112.486 105.416C98.9527 127.933 85.3538 128 79.2346 128H66.7654C60.6462 128 47.0474 127.933 33.514 105.416C28.6604 97.3403 11 68 11 68C11 68 28.6599 38.6605 33.514 30.5843C47.0474 8.06711 60.6462 8 66.7654 8Z" fill="#4CACB9"/>
<path opacity="0.3" fill-rule="evenodd" clip-rule="evenodd" d="M56.166 20.4257C61.1605 18.011 65.376 18 67.9084 18H78.0916C80.624 18 84.8395 18.011 89.8339 20.4257C94.827 22.8398 100.5 27.6048 106.104 36.9287C108.086 40.2262 112.682 47.8649 116.783 54.6796C118.834 58.0869 120.761 61.2881 122.175 63.6374L124.489 67.4832L124.801 68L124.49 68.516L122.175 72.3626C120.761 74.7119 118.834 77.9131 116.783 81.3204C112.682 88.1351 108.086 95.7738 106.104 99.0713C100.5 108.395 94.827 113.16 89.8339 115.574C84.8395 117.989 80.624 118 78.0916 118H67.9084C65.376 118 61.1605 117.989 56.166 115.574C51.1729 113.16 45.4999 108.395 39.8959 99.0713C37.9143 95.7742 33.3178 88.1354 29.2166 81.3206C27.1661 77.9133 25.2394 74.7121 23.8253 72.3627L21.5105 68.5168L21.1995 68L21.51 67.484L23.8253 63.6374C25.2393 61.2881 27.166 58.0869 29.2165 54.6796C33.3176 47.8649 37.9141 40.2262 39.8959 36.9287C45.4999 27.6048 51.1729 22.8398 56.166 20.4257ZM23.5338 68L25.5389 71.3313C26.953 73.6807 28.8797 76.882 30.9302 80.2894C35.0313 87.1039 39.6281 94.7433 41.6102 98.0411C47.0585 107.106 52.4645 111.563 57.0366 113.774C61.6074 115.984 65.4434 116 67.9084 116H78.0916C80.5565 116 84.3926 115.984 88.9634 113.774C93.5355 111.563 98.9415 107.106 104.39 98.0411C106.372 94.743 110.969 87.1036 115.07 80.2891C117.12 76.8818 119.047 73.6806 120.461 71.3312L122.466 68L120.461 64.6688C119.047 62.3194 117.12 59.1182 115.07 55.7109C110.969 48.8964 106.372 41.2571 104.39 37.959C98.9415 28.8939 93.5355 24.4369 88.9634 22.2263C84.3926 20.0164 80.5565 20 78.0916 20H67.9084C65.4434 20 61.6074 20.0164 57.0366 22.2263C52.4645 24.4369 47.0585 28.8939 41.6102 37.959C39.6279 41.2571 35.0311 48.8964 30.9301 55.7109C28.8796 59.1182 26.9529 62.3194 25.5388 64.6688L23.5338 68Z" fill="#4CACB9"/>
<path fill-rule="evenodd" clip-rule="evenodd" d="M48.4678 24.5197C56.6827 17.0559 64.097 17 67.9085 17H78.0917C81.9032 17 89.3174 17.0559 97.5324 24.5197L94.8426 27.4803C87.7117 21.0014 81.5083 21 78.0917 21H67.9085C64.4918 21 58.2885 21.0014 51.1576 27.4803L48.4678 24.5197ZM67.9085 119C64.097 119 56.6827 118.944 48.4678 111.48L51.1576 108.52C58.2885 114.999 64.4918 115 67.9085 115H78.0917C81.5083 115 87.7117 114.999 94.8426 108.52L97.5324 111.48C89.3174 118.944 81.9032 119 78.0917 119H67.9085Z" fill="#F0F0F0"/>
<path d="M69.2593 32H76.7408C80.4123 32 88.5716 32.0403 96.6917 45.5506C99.6041 50.3963 110.2 68 110.2 68C110.2 68 99.6041 85.6037 96.6917 90.4494C88.5716 103.96 80.4123 104 76.7408 104H69.2593C65.5878 104 57.4285 103.96 49.3084 90.4494C46.3963 85.6042 35.8 68 35.8 68C35.8 68 46.396 50.3963 49.3084 45.5506C57.4285 32.0403 65.5878 32 69.2593 32Z" fill="#4CACB9"/>
<g style="mix-blend-mode:multiply" opacity="0.25">
<path d="M69.2593 104C65.5878 104 57.4285 103.96 49.3084 90.4494C46.3963 85.6042 35.8 68 35.8 68C35.8 68 46.396 50.3963 49.3084 45.5506C57.4285 32.0403 65.5878 32 69.2593 32H73.0001V104H69.2593Z" fill="#4CACB9"/>
</g>
<g style="mix-blend-mode:multiply" opacity="0.5">
<path d="M70.8179 47H75.1822C77.3239 47 82.0835 47.0235 86.8202 54.9045C88.5191 57.7312 94.7001 68 94.7001 68C94.7001 68 88.5191 78.2688 86.8202 81.0955C82.0835 88.9765 77.3239 89 75.1822 89H70.8179C68.6762 89 63.9166 88.9765 59.1799 81.0955C57.4812 78.2691 51.3 68 51.3 68C51.3 68 57.481 57.7312 59.1799 54.9045C63.9166 47.0235 68.6762 47 70.8179 47Z" fill="#4CACB9"/>
</g>
<path opacity="0.15" d="M112.486 30.5843C98.9526 8.06711 85.3538 8 79.2346 8H73V128H79.2346C85.3538 128 98.9526 127.933 112.486 105.416C117.34 97.3395 135 68 135 68C135 68 117.34 38.6605 112.486 30.5843Z" fill="#4CACB9"/>
<g filter="url(#filter0_dd)">
<path d="M56.9999 68L73 68V86C73 86 70.1308 78.7715 66.8856 75.1521C63.7034 71.603 56.9999 68 56.9999 68Z" fill="#9DA5AA"/>
<path d="M56.9999 68L73 68V50C73 50 70.1308 57.2285 66.8856 60.8479C63.7034 64.397 56.9999 68 56.9999 68Z" fill="#C0C5C9"/>
<path d="M89.0001 68L73 68V86C73 86 75.8692 78.7715 79.1144 75.1521C82.2966 71.603 89.0001 68 89.0001 68Z" fill="#C0C5C9"/>
<path d="M89.0001 68L73 68V50C73 50 75.8692 57.2285 79.1144 60.8479C82.2966 64.397 89.0001 68 89.0001 68Z" fill="#F0F0F0"/>
</g>
<g filter="url(#filter1_dd)">
<path d="M116 68L123 68V75C123 75 121.745 72.1889 120.325 70.7814C118.933 69.4012 116 68 116 68Z" fill="#9DA5AA"/>
<path d="M116 68L123 68V61C123 61 121.745 63.8111 120.325 65.2186C118.933 66.5988 116 68 116 68Z" fill="#C0C5C9"/>
<path d="M130 68L123 68V75C123 75 124.255 72.1889 125.675 70.7814C127.067 69.4012 130 68 130 68Z" fill="#C0C5C9"/>
<path d="M130 68L123 68V61C123 61 124.255 63.8111 125.675 65.2186C127.067 66.5988 130 68 130 68Z" fill="#F0F0F0"/>
</g>
<g filter="url(#filter2_dd)">
<path d="M16 68L23 68V75C23 75 21.7447 72.1889 20.325 70.7814C18.9328 69.4012 16 68 16 68Z" fill="#9DA5AA"/>
<path d="M16 68L23 68V61C23 61 21.7447 63.8111 20.325 65.2186C18.9328 66.5988 16 68 16 68Z" fill="#C0C5C9"/>
<path d="M30 68L23 68V75C23 75 24.2553 72.1889 25.675 70.7814C27.0672 69.4012 30 68 30 68Z" fill="#C0C5C9"/>
<path d="M30 68L23 68V61C23 61 24.2553 63.8111 25.675 65.2186C27.0672 66.5988 30 68 30 68Z" fill="#F0F0F0"/>
</g>
<g style="mix-blend-mode:overlay" opacity="0.5">
<path d="M69.2593 32H76.7408C80.4123 32 88.5716 32.0403 96.6917 45.5506C99.6041 50.3963 110.2 68 110.2 68C110.2 68 99.6041 85.6037 96.6917 90.4494C88.5716 103.96 80.4123 104 76.7408 104H69.2593C65.5878 104 57.4285 103.96 49.3084 90.4494C46.3963 85.6042 35.8 68 35.8 68C35.8 68 46.396 50.3963 49.3084 45.5506C57.4285 32.0403 65.5878 32 69.2593 32Z" fill="url(#paint0_linear)"/>
</g>
<defs>
<filter id="filter0_dd" x="41" y="34" width="64.0001" height="68" filterUnits="userSpaceOnUse" color-interpolation-filters="sRGB">
<feFlood flood-opacity="0" result="BackgroundImageFix"/>
<feColorMatrix in="SourceAlpha" type="matrix" values="0 0 0 0 0 0 0 0 0 0 0 0 0 0 0 0 0 0 127 0"/>
<feOffset/>
<feGaussianBlur stdDeviation="4"/>
<feColorMatrix type="matrix" values="0 0 0 0 0.027451 0 0 0 0 0.054902 0 0 0 0 0.113725 0 0 0 0.2 0"/>
<feBlend mode="soft-light" in2="BackgroundImageFix" result="effect1_dropShadow"/>
<feColorMatrix in="SourceAlpha" type="matrix" values="0 0 0 0 0 0 0 0 0 0 0 0 0 0 0 0 0 0 127 0"/>
<feOffset/>
<feGaussianBlur stdDeviation="8"/>
<feColorMatrix type="matrix" values="0 0 0 0 0.027451 0 0 0 0 0.054902 0 0 0 0 0.113725 0 0 0 0.2 0"/>
<feBlend mode="soft-light" in2="effect1_dropShadow" result="effect2_dropShadow"/>
<feBlend mode="normal" in="SourceGraphic" in2="effect2_dropShadow" result="shape"/>
</filter>
<filter id="filter1_dd" x="100" y="45" width="46" height="46" filterUnits="userSpaceOnUse" color-interpolation-filters="sRGB">
<feFlood flood-opacity="0" result="BackgroundImageFix"/>
<feColorMatrix in="SourceAlpha" type="matrix" values="0 0 0 0 0 0 0 0 0 0 0 0 0 0 0 0 0 0 127 0"/>
<feOffset/>
<feGaussianBlur stdDeviation="4"/>
<feColorMatrix type="matrix" values="0 0 0 0 0.027451 0 0 0 0 0.054902 0 0 0 0 0.113725 0 0 0 0.2 0"/>
<feBlend mode="soft-light" in2="BackgroundImageFix" result="effect1_dropShadow"/>
<feColorMatrix in="SourceAlpha" type="matrix" values="0 0 0 0 0 0 0 0 0 0 0 0 0 0 0 0 0 0 127 0"/>
<feOffset/>
<feGaussianBlur stdDeviation="8"/>
<feColorMatrix type="matrix" values="0 0 0 0 0.027451 0 0 0 0 0.054902 0 0 0 0 0.113725 0 0 0 0.2 0"/>
<feBlend mode="soft-light" in2="effect1_dropShadow" result="effect2_dropShadow"/>
<feBlend mode="normal" in="SourceGraphic" in2="effect2_dropShadow" result="shape"/>
</filter>
<filter id="filter2_dd" x="0" y="45" width="46" height="46" filterUnits="userSpaceOnUse" color-interpolation-filters="sRGB">
<feFlood flood-opacity="0" result="BackgroundImageFix"/>
<feColorMatrix in="SourceAlpha" type="matrix" values="0 0 0 0 0 0 0 0 0 0 0 0 0 0 0 0 0 0 127 0"/>
<feOffset/>
<feGaussianBlur stdDeviation="4"/>
<feColorMatrix type="matrix" values="0 0 0 0 0.027451 0 0 0 0 0.054902 0 0 0 0 0.113725 0 0 0 0.2 0"/>
<feBlend mode="soft-light" in2="BackgroundImageFix" result="effect1_dropShadow"/>
<feColorMatrix in="SourceAlpha" type="matrix" values="0 0 0 0 0 0 0 0 0 0 0 0 0 0 0 0 0 0 127 0"/>
<feOffset/>
<feGaussianBlur stdDeviation="8"/>
<feColorMatrix type="matrix" values="0 0 0 0 0.027451 0 0 0 0 0.054902 0 0 0 0 0.113725 0 0 0 0.2 0"/>
<feBlend mode="soft-light" in2="effect1_dropShadow" result="effect2_dropShadow"/>
<feBlend mode="normal" in="SourceGraphic" in2="effect2_dropShadow" result="shape"/>
</filter>
<linearGradient id="paint0_linear" x1="110" y1="32" x2="24.2415" y2="84.9591" gradientUnits="userSpaceOnUse">
<stop stop-color="white"/>
<stop offset="1"/>
</linearGradient>
</defs>
</svg>
