<svg width="136" height="136" viewBox="0 0 136 136" fill="none" xmlns="http://www.w3.org/2000/svg">
<circle opacity="0.15" cx="68.0002" cy="68" r="55.9999" fill="#616D77"/>
<circle cx="67.9998" cy="68" r="41" fill="#47525B"/>
<path d="M109 68C109 90.6437 90.6437 109 68 109C68 109 68 49.6436 68 26.9999C90.6437 26.9999 109 45.3563 109 68Z" fill="#3B4651"/>
<g opacity="0.4">
<circle cx="67.9998" cy="68" r="41" fill="#6D7077"/>
<path d="M109 68C109 90.6437 90.6437 109 68 109C68 109 68 49.6437 68 27C90.6437 27 109 45.3564 109 68Z" fill="#4E555A"/>
</g>
<path opacity="0.3" fill-rule="evenodd" clip-rule="evenodd" d="M67.9998 106.879C89.4722 106.879 106.879 89.4724 106.879 68C106.879 46.5275 89.4722 29.1207 67.9998 29.1207C46.5273 29.1207 29.1204 46.5275 29.1204 68C29.1204 89.4724 46.5273 106.879 67.9998 106.879ZM67.9998 109C90.6434 109 109 90.6437 109 68C109 45.3563 90.6434 27 67.9998 27C45.3561 27 26.9998 45.3563 26.9998 68C26.9998 90.6437 45.3561 109 67.9998 109Z" fill="#E5EBEF"/>
<path d="M63 91V81H73V91H63Z" fill="#E5EBEF"/>
<path d="M62.9014 74.7286V78.0043H73.05V75.1554C73.05 74.9165 73.0634 74.7007 73.0877 74.5066C73.142 74.3011 73.2053 74.1118 73.2764 73.9376C73.4077 73.7038 73.5243 73.4765 73.6194 73.2597C73.6631 73.2058 73.7502 73.111 73.9075 72.9762L73.9181 72.9669C74.2423 72.6832 74.4982 72.4521 74.6566 72.2937L74.6588 72.2916L74.667 72.2841C74.6743 72.2776 74.6847 72.2686 74.6986 72.2572C74.7268 72.2341 74.7656 72.2043 74.8171 72.1676C74.9209 72.0934 75.0609 72.002 75.2428 71.8929L75.2846 71.8678L75.3245 71.8398C75.6689 71.5988 75.9008 71.438 76.0291 71.3507C76.2458 71.2372 76.5767 71.0488 76.9962 70.8041C77.4469 70.5412 77.7809 70.3424 77.9542 70.2292C78.9039 69.6503 79.7159 69.0969 80.378 68.5689C81.1258 68.0055 81.8645 67.2817 82.5972 66.4197C83.4186 65.4533 84.0132 64.3288 84.3894 63.0664C84.8036 61.772 85 60.35 85 58.8157C85 54.9663 83.4163 51.7378 80.3533 49.2136C77.3357 46.6931 73.528 45.48 69.0427 45.48C63.6749 45.48 59.3632 46.934 56.342 50.0467C53.441 53.0371 51.9647 56.9813 51.8098 61.7422L62.6414 62.3927C62.8242 60.0257 63.4644 58.4475 64.386 57.459C65.316 56.4615 66.7132 55.8725 68.7988 55.8725C70.769 55.8725 72.008 56.3211 72.7557 56.9858L72.7759 57.0037L72.7968 57.0208C73.6386 57.7123 73.9978 58.4883 73.9978 59.4253C73.9978 60.2693 73.7835 60.9734 73.377 61.5832C72.8595 62.3594 72.4432 62.8166 72.1402 63.0519C71.6627 63.3693 70.8367 63.9002 69.6529 64.6499C68.708 65.2253 67.928 65.7305 67.3227 66.1628L67.3027 66.1771L67.2833 66.1921C66.6757 66.6595 66.0103 67.2852 65.2917 68.0461C64.4686 68.9175 63.8566 69.9192 63.4661 71.042C63.0797 72.1527 62.9014 73.3889 62.9014 74.7286Z" fill="#E5EBEF"/>
<g style="mix-blend-mode:overlay" opacity="0.25">
<circle cx="67.9998" cy="68" r="41" fill="url(#paint0_linear)"/>
</g>
<defs>
<linearGradient id="paint0_linear" x1="27.4847" y1="27" x2="90.7633" y2="120.953" gradientUnits="userSpaceOnUse">
<stop stop-color="white"/>
<stop offset="1"/>
</linearGradient>
</defs>
</svg>
