<svg width="136" height="136" viewBox="0 0 136 136" fill="none" xmlns="http://www.w3.org/2000/svg">
<path opacity="0.15" d="M68 6L110.583 30.0208C114.794 32.3966 117.706 36.5496 118.503 41.3189L124.818 79.1054C125.57 83.604 124.366 88.2096 121.509 91.765L94 126H42L14.4907 91.765C11.6338 88.2096 10.43 83.604 11.1819 79.1054L17.4974 41.3189C18.2946 36.5496 21.2058 32.3966 25.4174 30.0208L68 6Z" fill="#B67DEF"/>
<path d="M67.9999 32L92.8398 46.0121C95.2966 47.398 96.9948 49.8206 97.4598 52.6027L101.144 74.6448C101.582 77.269 100.88 79.9556 99.2137 82.0296L83.1666 102H52.8333L36.7862 82.0296C35.1196 79.9556 34.4174 77.269 34.856 74.6448L38.5401 52.6027C39.0051 49.8206 40.7033 47.398 43.1601 46.0121L67.9999 32Z" fill="#B67DEF"/>
<g style="mix-blend-mode:multiply" opacity="0.25">
<path d="M36.7862 82.0296L52.8333 102H67.9999L67.9999 32L43.1601 46.0121C40.7033 47.398 39.0051 49.8206 38.5401 52.6027L34.856 74.6448C34.4174 77.269 35.1196 79.9556 36.7862 82.0296Z" fill="#B67DEF"/>
</g>
<g style="mix-blend-mode:multiply" opacity="0.5">
<path d="M67.9999 47L82.549 55.2071C83.9879 56.0188 84.9826 57.4378 85.255 59.0673L87.4128 71.9777C87.6697 73.5147 87.2584 75.0883 86.2823 76.3031L76.8832 88H59.1166L49.7175 76.3031C48.7414 75.0883 48.3301 73.5147 48.587 71.9777L50.7448 59.0673C51.0172 57.4378 52.0119 56.0188 53.4508 55.2071L67.9999 47Z" fill="#B67DEF"/>
</g>
<path opacity="0.15" d="M110.583 30.0208L68 6V126H94L121.509 91.765C124.366 88.2096 125.57 83.604 124.818 79.1054L118.503 41.3189C117.705 36.5496 114.794 32.3966 110.583 30.0208Z" fill="#B67DEF"/>
<g style="mix-blend-mode:overlay" opacity="0.6">
<path d="M67.9999 32L92.8398 46.0121C95.2966 47.398 96.9948 49.8206 97.4598 52.6027L101.144 74.6448C101.582 77.269 100.88 79.9556 99.2137 82.0296L83.1666 102H52.8333L36.7862 82.0296C35.1196 79.9556 34.4174 77.269 34.856 74.6448L38.5401 52.6027C39.0051 49.8206 40.7033 47.398 43.1601 46.0121L67.9999 32Z" fill="url(#paint0_linear)"/>
</g>
<defs>
<linearGradient id="paint0_linear" x1="101" y1="32" x2="26.7276" y2="91.7101" gradientUnits="userSpaceOnUse">
<stop stop-color="white"/>
<stop offset="1" stop-opacity="0.75"/>
</linearGradient>
</defs>
</svg>
