<svg width="156" height="136" viewBox="0 0 156 136" fill="none" xmlns="http://www.w3.org/2000/svg">
<circle opacity="0.15" r="54" transform="matrix(-1 0 0 1 78 68)" fill="#C2264C"/>
<path opacity="0.3" fill-rule="evenodd" clip-rule="evenodd" d="M80.0246 5.10158L77.9996 1.52588e-05L75.9746 5.10158L75.9687 5.11639L75.9486 5.16665C75.9305 5.21183 75.903 5.28017 75.8664 5.37052C75.7931 5.55124 75.6835 5.81999 75.5395 6.16766C75.2514 6.86308 74.8262 7.87382 74.2805 9.12708C73.1886 11.6347 71.6171 15.1075 69.7001 18.9646C65.8409 26.7299 60.6744 35.8614 55.2845 41.8728C49.9993 47.7676 41.6797 53.8068 34.5536 58.4268C31.014 60.7216 27.8122 62.6388 25.4961 63.9818C24.3386 64.653 23.4036 65.18 22.7599 65.5382C22.4381 65.7172 22.1892 65.854 22.0218 65.9455C21.9381 65.9913 21.8747 66.0257 21.8329 66.0484L21.7863 66.0736L21.773 66.0808L18.2021 68L21.7726 69.9191L21.7753 69.9205L21.7863 69.9264L21.8329 69.9516C21.8747 69.9743 21.9381 70.0087 22.0218 70.0545C22.1892 70.146 22.4381 70.2828 22.7599 70.4619C23.4036 70.82 24.3386 71.347 25.4961 72.0182C27.8122 73.3612 31.014 75.2784 34.5536 77.5732C41.6797 82.1932 49.9993 88.2324 55.2845 94.1272C60.6744 100.139 65.8409 109.27 69.7001 117.035C71.6171 120.893 73.1886 124.365 74.2805 126.873C74.8262 128.126 75.2514 129.137 75.5395 129.832C75.6835 130.18 75.7931 130.449 75.8664 130.629C75.903 130.72 75.9305 130.788 75.9486 130.833L75.9687 130.884L75.9744 130.898L77.9996 136L80.0246 130.898L80.0258 130.895L80.0305 130.884L80.0506 130.833C80.0687 130.788 80.0962 130.72 80.1328 130.629C80.206 130.449 80.3157 130.18 80.4597 129.832C80.7477 129.137 81.173 128.126 81.7187 126.873C82.8105 124.365 84.3821 120.893 86.299 117.035C90.1582 109.27 95.3247 100.139 100.715 94.1272C106 88.2324 114.319 82.1932 121.446 77.5732C124.985 75.2784 128.187 73.3612 130.503 72.0182C131.661 71.347 132.596 70.82 133.239 70.4619C133.561 70.2828 133.81 70.146 133.977 70.0545C134.061 70.0087 134.124 69.9743 134.166 69.9516L134.213 69.9264L134.226 69.9193L137.797 68L134.227 66.081L134.213 66.0736L134.166 66.0484C134.124 66.0257 134.061 65.9913 133.977 65.9455C133.81 65.854 133.561 65.7172 133.239 65.5382C132.596 65.18 131.661 64.653 130.503 63.9818C128.187 62.6388 124.985 60.7216 121.446 58.4268C114.319 53.8068 106 47.7676 100.715 41.8728C95.3247 35.8614 90.1582 26.7299 86.299 18.9646C84.3821 15.1075 82.8105 11.6347 81.7187 9.12708C81.173 7.87382 80.7477 6.86308 80.4597 6.16766C80.3157 5.81999 80.206 5.55124 80.1328 5.37052C80.0962 5.28017 80.0687 5.21183 80.0506 5.16665L80.0305 5.11639L80.0258 5.10455L80.0246 5.10158ZM128.747 68C128.607 67.9194 128.464 67.8366 128.317 67.7514C125.954 66.3813 122.689 64.426 119.075 62.0831C111.894 57.4276 103.163 51.1305 97.4702 44.7818C91.6653 38.3074 86.2853 28.7281 82.3969 20.9039C80.5962 17.2808 79.0955 13.9929 77.9996 11.498C76.9036 13.9929 75.403 17.2808 73.6023 20.9039C69.7138 28.7281 64.3339 38.3074 58.5289 44.7818C52.8366 51.1305 44.1049 57.4276 36.9241 62.0831C33.3103 64.426 30.0448 66.3813 27.6819 67.7514C27.5351 67.8366 27.3918 67.9194 27.2521 68C27.3918 68.0806 27.5351 68.1635 27.6819 68.2486C30.0448 69.6187 33.3103 71.574 36.9241 73.9169C44.1049 78.5724 52.8366 84.8696 58.5289 91.2182C64.3339 97.6926 69.7138 107.272 73.6023 115.096C75.403 118.719 76.9036 122.007 77.9996 124.502C79.0955 122.007 80.5962 118.719 82.3969 115.096C86.2853 107.272 91.6653 97.6926 97.4702 91.2182C103.163 84.8696 111.894 78.5724 119.075 73.9169C122.689 71.574 125.954 69.6187 128.317 68.2486C128.464 68.1635 128.607 68.0806 128.747 68Z" fill="#F0F0F0"/>
<path d="M111.771 33.1399C111.771 33.7416 112.259 34.2293 112.86 34.2293C113.462 34.2293 113.95 33.7416 113.95 33.1399C113.95 32.5383 113.462 32.0506 112.86 32.0506C112.259 32.0506 111.771 32.5383 111.771 33.1399Z" fill="white"/>
<path d="M42.0508 102.86C42.0508 103.462 42.5385 103.949 43.1402 103.949C43.7418 103.949 44.2295 103.462 44.2295 102.86C44.2295 102.258 43.7418 101.771 43.1402 101.771C42.5385 101.771 42.0508 102.258 42.0508 102.86Z" fill="white"/>
<path d="M44.2295 33.1399C44.2295 33.7416 43.7418 34.2293 43.1402 34.2293C42.5385 34.2293 42.0508 33.7416 42.0508 33.1399C42.0508 32.5383 42.5385 32.0506 43.1402 32.0506C43.7418 32.0506 44.2295 32.5383 44.2295 33.1399Z" fill="white"/>
<path d="M113.95 102.86C113.95 103.462 113.462 103.949 112.86 103.949C112.259 103.949 111.771 103.462 111.771 102.86C111.771 102.258 112.259 101.771 112.86 101.771C113.462 101.771 113.95 102.258 113.95 102.86Z" fill="white"/>
<path fill-rule="evenodd" clip-rule="evenodd" d="M76.8443 68L46.9194 38.0752L48.0749 36.9197L77.9997 66.8446L107.925 36.9197L109.08 38.0752L79.1552 68L109.08 97.9248L107.924 99.0803L77.9997 69.1555L48.075 99.0803L46.9195 97.9248L76.8443 68Z" fill="white"/>
<path d="M62.1803 49.3873C70.5764 39.9682 77.9998 21.1568 77.9998 21.1568C77.9998 21.1568 85.4233 39.9682 93.8194 49.3873C102.052 58.6235 119.396 68 119.396 68C119.396 68 102.052 77.3765 93.8194 86.6127C85.4233 96.0318 77.9998 114.843 77.9998 114.843C77.9998 114.843 70.5764 96.0318 62.1803 86.6127C53.9472 77.3765 36.6035 68 36.6035 68C36.6035 68 53.9472 58.6235 62.1803 49.3873Z" fill="#C2264C"/>
<g style="mix-blend-mode:multiply" opacity="0.25">
<path d="M62.1803 49.3873C70.5764 39.9682 77.9998 21.1568 77.9998 21.1568V114.843C77.9998 114.843 70.5764 96.0318 62.1803 86.6127C53.9472 77.3765 36.6035 68 36.6035 68C36.6035 68 53.9472 58.6235 62.1803 49.3873Z" fill="#C2264C"/>
</g>
<path d="M67.2679 55.4472C72.9635 49.0948 77.9993 36.4081 77.9993 36.4081C77.9993 36.4081 83.0352 49.0948 88.7308 55.4472C94.3159 61.6763 106.081 68 106.081 68C106.081 68 94.3159 74.3237 88.7308 80.5528C83.0352 86.9052 77.9993 99.5919 77.9993 99.5919C77.9993 99.5919 72.9635 86.9052 67.2679 80.5528C61.6828 74.3237 49.9175 68 49.9175 68C49.9175 68 61.6828 61.6763 67.2679 55.4472Z" fill="#68277E"/>
<path opacity="0.15" d="M132 68C132 97.8234 107.823 122 78 122V14C107.823 14 132 38.1766 132 68Z" fill="#C2264C"/>
<path fill-rule="evenodd" clip-rule="evenodd" d="M80.0248 5.10155L77.9998 0L75.9748 5.10155L75.9703 5.11286L75.9547 5.15198L75.8904 5.31172C75.833 5.45365 75.7469 5.66537 75.6335 5.94057C75.4068 6.49101 75.0709 7.2951 74.6377 8.30236C73.7709 10.3175 72.5158 13.1423 70.9654 16.3737C67.854 22.8587 63.596 30.8914 58.9385 37.3068L62.4647 39.8668C67.3514 33.1356 71.7425 24.8276 74.8942 18.2587C76.1274 15.6882 77.1774 13.3703 77.9998 11.498C78.8223 13.3703 79.8723 15.6882 81.1055 18.2587C84.2572 24.8276 88.6482 33.1356 93.5349 39.8668L97.0612 37.3068C92.4037 30.8914 88.1456 22.8587 85.0342 16.3737C83.4839 13.1423 82.2288 10.3175 81.362 8.30236C80.9287 7.2951 80.5929 6.49101 80.3661 5.94057C80.2527 5.66537 80.1666 5.45365 80.1093 5.31172L80.045 5.15198L80.0293 5.11286L80.0248 5.10155ZM80.0249 130.898L80.0293 130.887L80.045 130.848L80.1093 130.688C80.1666 130.546 80.2527 130.335 80.3661 130.059C80.5929 129.509 80.9287 128.705 81.362 127.698C82.2288 125.682 83.4839 122.858 85.0342 119.626C88.1456 113.141 92.4037 105.109 97.0612 98.6932L93.5349 96.1332C88.6482 102.864 84.2572 111.172 81.1055 117.741C79.8723 120.312 78.8223 122.63 77.9998 124.502C77.1774 122.63 76.1274 120.312 74.8942 117.741C71.7425 111.172 67.3514 102.864 62.4647 96.1332L58.9385 98.6931C63.596 105.109 67.854 113.141 70.9654 119.626C72.5158 122.858 73.7709 125.682 74.6377 127.698C75.0709 128.705 75.4068 129.509 75.6335 130.059C75.7469 130.335 75.833 130.546 75.8904 130.688L75.9547 130.848L75.9703 130.887L75.9747 130.898L77.9998 136L80.0249 130.898Z" fill="#F0F0F0"/>
<g opacity="0.05">
<path d="M78 0L80.025 5.10155L80.0295 5.11286L80.0451 5.15198L80.1094 5.31172C80.1668 5.45365 80.2529 5.66537 80.3663 5.94057C80.5931 6.49101 80.9289 7.2951 81.3622 8.30236C82.2289 10.3175 83.484 13.1423 85.0344 16.3737C88.1458 22.8587 92.4038 30.8914 97.0613 37.3068L93.5351 39.8668C88.6484 33.1356 84.2573 24.8276 81.1057 18.2587C79.8724 15.6882 78.8224 13.3703 78 11.498L78 0Z" fill="#C2264C"/>
<path d="M80.0451 130.848L80.0295 130.887L80.0251 130.898L78 136V124.502C78.8224 122.63 79.8724 120.312 81.1057 117.741C84.2573 111.172 88.6484 102.864 93.5351 96.1332L97.0614 98.6932C92.4038 105.109 88.1458 113.141 85.0344 119.626C83.484 122.858 82.2289 125.682 81.3622 127.698C80.9289 128.705 80.5931 129.509 80.3663 130.059C80.2529 130.335 80.1668 130.546 80.1094 130.688L80.0451 130.848Z" fill="#C2264C"/>
</g>
<g filter="url(#filter0_dd)">
<path d="M60.5699 68L78 68V87.6088C78 87.6088 74.8743 79.7343 71.3391 75.7914C67.8725 71.925 60.5699 68 60.5699 68Z" fill="#9DA5AA"/>
<path d="M60.5699 68L78 68V48.3912C78 48.3912 74.8743 56.2657 71.3391 60.2086C67.8725 64.075 60.5699 68 60.5699 68Z" fill="#C0C5C9"/>
<path d="M95.4301 68L78 68V87.6088C78 87.6088 81.1257 79.7343 84.6609 75.7914C88.1275 71.925 95.4301 68 95.4301 68Z" fill="#C0C5C9"/>
<path d="M95.4301 68L78 68V48.3912C78 48.3912 81.1257 56.2657 84.6609 60.2086C88.1275 64.075 95.4301 68 95.4301 68Z" fill="#F0F0F0"/>
</g>
<g filter="url(#filter1_dd)">
<path d="M122.665 68L130.291 68V75.6257C130.291 75.6257 128.923 72.5633 127.376 71.03C125.86 69.5264 122.665 68 122.665 68Z" fill="#9DA5AA"/>
<path d="M122.665 68L130.291 68V60.3743C130.291 60.3743 128.923 63.4367 127.376 64.97C125.86 66.4736 122.665 68 122.665 68Z" fill="#C0C5C9"/>
<path d="M137.916 68L130.291 68V75.6257C130.291 75.6257 131.658 72.5633 133.205 71.03C134.721 69.5264 137.916 68 137.916 68Z" fill="#C0C5C9"/>
<path d="M137.916 68L130.291 68V60.3743C130.291 60.3743 131.658 63.4367 133.205 64.97C134.721 66.4736 137.916 68 137.916 68Z" fill="#F0F0F0"/>
</g>
<g filter="url(#filter2_dd)">
<path d="M18.0838 68L25.7095 68V75.6256C25.7095 75.6256 24.342 72.5633 22.7953 71.03C21.2787 69.5264 18.0838 68 18.0838 68Z" fill="#9DA5AA"/>
<path d="M18.0838 68L25.7095 68V60.3743C25.7095 60.3743 24.342 63.4366 22.7953 64.97C21.2787 66.4736 18.0838 68 18.0838 68Z" fill="#C0C5C9"/>
<path d="M33.3351 68L25.7095 68V75.6256C25.7095 75.6256 27.077 72.5633 28.6236 71.03C30.1402 69.5264 33.3351 68 33.3351 68Z" fill="#C0C5C9"/>
<path d="M33.3351 68L25.7095 68V60.3743C25.7095 60.3743 27.077 63.4366 28.6236 64.97C30.1402 66.4736 33.3351 68 33.3351 68Z" fill="#F0F0F0"/>
</g>
<g style="mix-blend-mode:overlay">
<path d="M62.1803 49.3873C70.5764 39.9682 77.9998 21.1568 77.9998 21.1568C77.9998 21.1568 85.4233 39.9682 93.8194 49.3873C102.052 58.6235 119.396 68 119.396 68C119.396 68 102.052 77.3765 93.8194 86.6127C85.4233 96.0318 77.9998 114.843 77.9998 114.843C77.9998 114.843 70.5764 96.0318 62.1803 86.6127C53.9472 77.3765 36.6035 68 36.6035 68C36.6035 68 53.9472 58.6235 62.1803 49.3873Z" fill="url(#paint0_linear)"/>
</g>
<defs>
<filter id="filter0_dd" x="43.1398" y="30.9612" width="69.7204" height="74.0776" filterUnits="userSpaceOnUse" color-interpolation-filters="sRGB">
<feFlood flood-opacity="0" result="BackgroundImageFix"/>
<feColorMatrix in="SourceAlpha" type="matrix" values="0 0 0 0 0 0 0 0 0 0 0 0 0 0 0 0 0 0 127 0"/>
<feOffset/>
<feGaussianBlur stdDeviation="4.35751"/>
<feColorMatrix type="matrix" values="0 0 0 0 0.027451 0 0 0 0 0.054902 0 0 0 0 0.113725 0 0 0 0.2 0"/>
<feBlend mode="soft-light" in2="BackgroundImageFix" result="effect1_dropShadow"/>
<feColorMatrix in="SourceAlpha" type="matrix" values="0 0 0 0 0 0 0 0 0 0 0 0 0 0 0 0 0 0 127 0"/>
<feOffset/>
<feGaussianBlur stdDeviation="8.71501"/>
<feColorMatrix type="matrix" values="0 0 0 0 0.027451 0 0 0 0 0.054902 0 0 0 0 0.113725 0 0 0 0.2 0"/>
<feBlend mode="soft-light" in2="effect1_dropShadow" result="effect2_dropShadow"/>
<feBlend mode="normal" in="SourceGraphic" in2="effect2_dropShadow" result="shape"/>
</filter>
<filter id="filter1_dd" x="105.235" y="42.9443" width="50.1112" height="50.1113" filterUnits="userSpaceOnUse" color-interpolation-filters="sRGB">
<feFlood flood-opacity="0" result="BackgroundImageFix"/>
<feColorMatrix in="SourceAlpha" type="matrix" values="0 0 0 0 0 0 0 0 0 0 0 0 0 0 0 0 0 0 127 0"/>
<feOffset/>
<feGaussianBlur stdDeviation="4.35751"/>
<feColorMatrix type="matrix" values="0 0 0 0 0.027451 0 0 0 0 0.054902 0 0 0 0 0.113725 0 0 0 0.2 0"/>
<feBlend mode="soft-light" in2="BackgroundImageFix" result="effect1_dropShadow"/>
<feColorMatrix in="SourceAlpha" type="matrix" values="0 0 0 0 0 0 0 0 0 0 0 0 0 0 0 0 0 0 127 0"/>
<feOffset/>
<feGaussianBlur stdDeviation="8.71501"/>
<feColorMatrix type="matrix" values="0 0 0 0 0.027451 0 0 0 0 0.054902 0 0 0 0 0.113725 0 0 0 0.2 0"/>
<feBlend mode="soft-light" in2="effect1_dropShadow" result="effect2_dropShadow"/>
<feBlend mode="normal" in="SourceGraphic" in2="effect2_dropShadow" result="shape"/>
</filter>
<filter id="filter2_dd" x="0.653957" y="42.9443" width="50.1112" height="50.1114" filterUnits="userSpaceOnUse" color-interpolation-filters="sRGB">
<feFlood flood-opacity="0" result="BackgroundImageFix"/>
<feColorMatrix in="SourceAlpha" type="matrix" values="0 0 0 0 0 0 0 0 0 0 0 0 0 0 0 0 0 0 127 0"/>
<feOffset/>
<feGaussianBlur stdDeviation="4.35751"/>
<feColorMatrix type="matrix" values="0 0 0 0 0.027451 0 0 0 0 0.054902 0 0 0 0 0.113725 0 0 0 0.2 0"/>
<feBlend mode="soft-light" in2="BackgroundImageFix" result="effect1_dropShadow"/>
<feColorMatrix in="SourceAlpha" type="matrix" values="0 0 0 0 0 0 0 0 0 0 0 0 0 0 0 0 0 0 127 0"/>
<feOffset/>
<feGaussianBlur stdDeviation="8.71501"/>
<feColorMatrix type="matrix" values="0 0 0 0 0.027451 0 0 0 0 0.054902 0 0 0 0 0.113725 0 0 0 0.2 0"/>
<feBlend mode="soft-light" in2="effect1_dropShadow" result="effect2_dropShadow"/>
<feBlend mode="normal" in="SourceGraphic" in2="effect2_dropShadow" result="shape"/>
</filter>
<linearGradient id="paint0_linear" x1="119.058" y1="21.1568" x2="21.4454" y2="94.1086" gradientUnits="userSpaceOnUse">
<stop stop-color="white"/>
<stop offset="1" stop-opacity="0.75"/>
</linearGradient>
</defs>
</svg>
