<svg width="136" height="136" viewBox="0 0 136 136" fill="none" xmlns="http://www.w3.org/2000/svg">
<path opacity="0.15" d="M61.7654 8H74.2346C80.3538 8 93.9527 8.06711 107.486 30.5843C112.34 38.6605 130 68 130 68C130 68 112.34 97.3395 107.486 105.416C93.9527 127.933 80.3538 128 74.2346 128H61.7654C55.6462 128 42.0474 127.933 28.514 105.416C23.6604 97.3403 6 68 6 68C6 68 23.6599 38.6605 28.514 30.5843C42.0474 8.06711 55.6462 8 61.7654 8Z" fill="#4CACB9"/>
<path d="M64.2593 32H71.7408C75.4123 32 83.5716 32.0403 91.6917 45.5506C94.6041 50.3963 105.2 68 105.2 68C105.2 68 94.6041 85.6037 91.6917 90.4494C83.5716 103.96 75.4123 104 71.7408 104H64.2593C60.5878 104 52.4285 103.96 44.3084 90.4494C41.3963 85.6042 30.8 68 30.8 68C30.8 68 41.396 50.3963 44.3084 45.5506C52.4285 32.0403 60.5878 32 64.2593 32Z" fill="#4CACB9"/>
<g style="mix-blend-mode:multiply" opacity="0.25">
<path d="M64.2593 104C60.5878 104 52.4285 103.96 44.3084 90.4494C41.3963 85.6042 30.8 68 30.8 68C30.8 68 41.396 50.3963 44.3084 45.5506C52.4285 32.0403 60.5878 32 64.2593 32H68.0001V104H64.2593Z" fill="#4CACB9"/>
</g>
<g style="mix-blend-mode:multiply" opacity="0.5">
<path d="M65.8179 47H70.1822C72.3239 47 77.0835 47.0235 81.8202 54.9045C83.5191 57.7312 89.7001 68 89.7001 68C89.7001 68 83.5191 78.2688 81.8202 81.0955C77.0835 88.9765 72.3239 89 70.1822 89H65.8179C63.6762 89 58.9166 88.9765 54.1799 81.0955C52.4812 78.2691 46.3 68 46.3 68C46.3 68 52.481 57.7312 54.1799 54.9045C58.9166 47.0235 63.6762 47 65.8179 47Z" fill="#4CACB9"/>
</g>
<path opacity="0.15" d="M107.486 30.5843C93.9526 8.06711 80.3538 8 74.2346 8H68V128H74.2346C80.3538 128 93.9526 127.933 107.486 105.416C112.34 97.3395 130 68 130 68C130 68 112.34 38.6605 107.486 30.5843Z" fill="#4CACB9"/>
<g style="mix-blend-mode:overlay" opacity="0.5">
<path d="M64.2593 32H71.7408C75.4123 32 83.5716 32.0403 91.6917 45.5506C94.6041 50.3963 105.2 68 105.2 68C105.2 68 94.6041 85.6037 91.6917 90.4494C83.5716 103.96 75.4123 104 71.7408 104H64.2593C60.5878 104 52.4285 103.96 44.3084 90.4494C41.3963 85.6042 30.8 68 30.8 68C30.8 68 41.396 50.3963 44.3084 45.5506C52.4285 32.0403 60.5878 32 64.2593 32Z" fill="url(#paint0_linear)"/>
</g>
<defs>
<linearGradient id="paint0_linear" x1="105" y1="32" x2="19.2415" y2="84.9591" gradientUnits="userSpaceOnUse">
<stop stop-color="white"/>
<stop offset="1"/>
</linearGradient>
</defs>
</svg>
